<svg width="14" height="14" viewBox="0 0 14 14" fill="none" xmlns="http://www.w3.org/2000/svg">
<path d="M7 1.25C8.52499 1.25 9.9871 1.85624 11.0654 2.93457C12.1438 4.0129 12.75 5.47501 12.75 7L12.7432 7.28516C12.6727 8.70633 12.0764 10.0545 11.0654 11.0654C9.9871 12.1438 8.52499 12.75 7 12.75C5.47501 12.75 4.0129 12.1438 2.93457 11.0654C1.85624 9.9871 1.25 8.52499 1.25 7C1.25 5.47501 1.85624 4.0129 2.93457 2.93457C4.0129 1.85624 5.47501 1.25 7 1.25Z" fill="#D7E0FF" stroke="black"/>
<path d="M5.5 4.5C5.11 4.5 4.417 4.804 4.367 5.648C4.337 6.145 4.169 6.665 3.724 6.888L3.5 7L3.724 7.112C4.169 7.335 4.337 7.855 4.367 8.352C4.417 9.196 5.11 9.5 5.5 9.5M8.5 4.5C8.89 4.5 9.583 4.804 9.633 5.648C9.663 6.145 9.831 6.665 10.276 6.888L10.5 7L10.276 7.112C9.831 7.335 9.663 7.855 9.633 8.352C9.62654 8.65187 9.50555 8.93789 9.29486 9.15137C9.08417 9.36485 8.79976 9.48959 8.5 9.5" stroke="black" stroke-linecap="round" stroke-linejoin="round"/>
<path d="M7 13.25C8.6576 13.25 10.2473 12.5915 11.4194 11.4194C12.5915 10.2473 13.25 8.6576 13.25 7C13.25 5.3424 12.5915 3.75268 11.4194 2.58058C10.2473 1.40848 8.6576 0.75 7 0.75C5.3424 0.75 3.75268 1.40848 2.58058 2.58058C1.40848 3.75268 0.75 5.3424 0.75 7C0.75 8.6576 1.40848 10.2473 2.58058 11.4194C3.75268 12.5915 5.3424 13.25 7 13.25Z" stroke="black" stroke-linecap="round" stroke-linejoin="round"/>
</svg>
