<svg width="38" height="38" viewBox="0 0 38 38" fill="none" xmlns="http://www.w3.org/2000/svg">
<path d="M19 1.5C23.6413 1.5 28.0921 3.34409 31.374 6.62598C34.6559 9.90786 36.5 14.3587 36.5 19C36.5 23.6413 34.6559 28.0921 31.374 31.374C28.0921 34.6559 23.6413 36.5 19 36.5C14.3587 36.5 9.90786 34.6559 6.62598 31.374C3.34409 28.0921 1.5 23.6413 1.5 19C1.5 14.3587 3.34409 9.90786 6.62598 6.62598C9.90786 3.34409 14.3587 1.5 19 1.5Z" fill="white" stroke="black"/>
<path d="M19 37C23.7739 37 28.3523 35.1036 31.7279 31.7279C35.1036 28.3523 37 23.7739 37 19C37 14.2261 35.1036 9.64773 31.7279 6.27208C28.3523 2.89642 23.7739 1 19 1C14.2261 1 9.64773 2.89642 6.27208 6.27208C2.89642 9.64773 1 14.2261 1 19C1 23.7739 2.89642 28.3523 6.27208 31.7279C9.64773 35.1036 14.2261 37 19 37Z" stroke="black" stroke-linecap="round" stroke-linejoin="round"/>
<path d="M17.011 26.0039C16.9179 26.6641 16.7825 27.2269 16.6048 27.6924C16.4271 28.1494 16.2112 28.526 15.9573 28.8223C15.7034 29.11 15.4114 29.3174 15.0814 29.4443C14.7597 29.5798 14.4043 29.6475 14.015 29.6475C13.4648 29.6475 12.9485 29.4867 12.4661 29.165C11.9922 28.8434 11.5817 28.3652 11.2347 27.7305C10.8877 27.0957 10.6126 26.3086 10.4095 25.3691C10.2148 24.4297 10.1175 23.3421 10.1175 22.1064C10.1175 20.8115 10.2402 19.5547 10.4857 18.3359C10.7396 17.1172 11.095 15.9746 11.5521 14.9082C12.0176 13.8418 12.5719 12.8685 13.2151 11.9883C13.8668 11.0996 14.5905 10.3421 15.386 9.71582C16.1901 9.08105 17.0576 8.59017 17.9886 8.24316C18.9196 7.8877 19.8929 7.70996 20.9085 7.70996C21.7803 7.70996 22.5758 7.84115 23.2952 8.10352C24.0146 8.36589 24.6325 8.72982 25.1487 9.19531C25.665 9.66081 26.0628 10.2109 26.3421 10.8457C26.6214 11.4805 26.761 12.166 26.761 12.9023C26.761 13.791 26.6383 14.6204 26.3929 15.3906C26.1474 16.1523 25.8047 16.8506 25.3646 17.4854C24.9329 18.1201 24.4166 18.6872 23.8157 19.1865C23.2148 19.6859 22.5589 20.109 21.848 20.4561C21.1455 20.8031 20.4007 21.0739 19.6136 21.2686C18.8349 21.4548 18.0436 21.5605 17.2396 21.5859C17.2142 22.6439 17.1845 23.5368 17.1507 24.2646C17.1253 24.984 17.0788 25.5638 17.011 26.0039ZM14.8021 20.6846C14.8444 20.7015 14.8952 20.7184 14.9544 20.7354C15.0052 20.7523 15.0644 20.7692 15.1321 20.7861C15.2083 20.8031 15.2972 20.82 15.3987 20.8369C15.3818 19.779 15.3607 18.8099 15.3353 17.9297C15.3183 17.041 15.2972 16.2666 15.2718 15.6064C15.2379 14.8363 15.2083 14.1423 15.1829 13.5244C15.2422 13.4736 15.3099 13.4313 15.386 13.3975C15.4538 13.3636 15.5342 13.334 15.6273 13.3086C15.7204 13.2832 15.8346 13.2705 15.97 13.2705C16.3594 13.2705 16.6725 13.3424 16.9095 13.4863C17.1465 13.6217 17.265 13.8545 17.265 14.1846C17.265 15.5811 17.265 16.8337 17.265 17.9424C17.265 19.0511 17.2565 20.0498 17.2396 20.9385C18.3483 20.9385 19.3512 20.7269 20.2484 20.3037C21.154 19.8805 21.9241 19.3177 22.5589 18.6152C23.1937 17.9043 23.6845 17.0876 24.0316 16.165C24.3786 15.2425 24.5521 14.2777 24.5521 13.2705C24.5521 12.6273 24.4632 12.0179 24.2855 11.4424C24.1162 10.8584 23.8538 10.3506 23.4984 9.91895C23.1429 9.47884 22.6943 9.13184 22.1526 8.87793C21.6194 8.61556 20.9889 8.48438 20.261 8.48438C19.5247 8.48438 18.7969 8.62402 18.0775 8.90332C17.3665 9.18262 16.6852 9.60156 16.0335 10.1602C15.3903 10.7188 14.7936 11.4128 14.2435 12.2422C13.7018 13.0716 13.2278 14.0407 12.8216 15.1494C12.4238 16.2581 12.1107 17.5023 11.8821 18.8818C11.6621 20.2529 11.5521 21.7637 11.5521 23.4141C11.5521 24.125 11.5859 24.819 11.6536 25.4961C11.7298 26.1647 11.8525 26.7614 12.0218 27.2861C12.1911 27.8024 12.4153 28.2171 12.6946 28.5303C12.9824 28.8434 13.3379 29 13.761 29C13.9896 29 14.2054 28.9535 14.4085 28.8604C14.6116 28.7673 14.7894 28.5768 14.9417 28.2891C15.0941 27.9928 15.2168 27.5739 15.3099 27.0322C15.403 26.4821 15.4495 25.75 15.4495 24.8359C15.4495 24.2604 15.4453 23.6934 15.4368 23.1348C15.4284 22.5677 15.4241 22.0176 15.4241 21.4844C15.2972 21.4674 15.1872 21.4463 15.0941 21.4209C15.001 21.3955 14.9206 21.3743 14.8528 21.3574C14.7767 21.332 14.7132 21.3066 14.6624 21.2812L14.8021 20.6846Z" fill="black"/>
</svg>
