<svg width="18" height="17" viewBox="0 0 18 17" fill="none" xmlns="http://www.w3.org/2000/svg">
<path d="M9 0.5C10.9891 0.5 12.8972 1.28977 14.3037 2.69629C15.7102 4.10281 16.5 6.01088 16.5 8C16.5 9.98912 15.7102 11.8972 14.3037 13.3037C12.8972 14.7102 10.9891 15.5 9 15.5C7.01088 15.5 5.10281 14.7102 3.69629 13.3037C2.28977 11.8972 1.5 9.98912 1.5 8C1.5 6.01088 2.28977 4.10281 3.69629 2.69629C5.10281 1.28977 7.01088 0.5 9 0.5Z" fill="white" stroke="black"/>
<path d="M6.25714 5C5.544 5 4.2768 5.3584 4.18537 6.35343C4.13051 6.93937 3.82331 7.55242 3.0096 7.81533L2.6 7.94737L3.0096 8.07941C3.82331 8.34232 4.13051 8.95537 4.18537 9.54131C4.2768 10.5363 5.544 10.8947 6.25714 10.8947M11.7429 5C12.456 5 13.7232 5.3584 13.8146 6.35343C13.8695 6.93937 14.1767 7.55242 14.9904 7.81533L15.4 7.94737L14.9904 8.07941C14.1767 8.34232 13.8695 8.95537 13.8146 9.54131C13.8028 9.89484 13.5816 10.232 13.1963 10.4837C12.811 10.7354 12.291 10.8825 11.7429 10.8947" stroke="black" stroke-linecap="round" stroke-linejoin="round"/>
<path d="M9 16C11.1217 16 13.1566 15.2098 14.6569 13.8033C16.1571 12.3968 17 10.4891 17 8.5C17 6.51088 16.1571 4.60322 14.6569 3.1967C13.1566 1.79018 11.1217 1 9 1C6.87827 1 4.84344 1.79018 3.34315 3.1967C1.84285 4.60322 1 6.51088 1 8.5C1 10.4891 1.84285 12.3968 3.34315 13.8033C4.84344 15.2098 6.87827 16 9 16Z" stroke="black" stroke-linecap="round" stroke-linejoin="round"/>
<path d="M8.572 12.024L8.548 12.012H8.308C8.3 12.012 8.284 12.012 8.26 12.012C8.244 12.012 8.224 12.008 8.2 12C8.176 11.984 8.14 11.972 8.092 11.964L7.816 12.012C7.76 11.988 7.688 11.964 7.6 11.94L7.36 11.988C7.296 11.972 7.252 11.956 7.228 11.94L7.216 11.904L7.3 10.356C7.372 10.22 7.408 10.136 7.408 10.104C7.408 10.088 7.408 10.072 7.408 10.056C7.408 10.04 7.404 10.02 7.396 9.996C7.38 9.94 7.376 9.9 7.384 9.876C7.384 9.836 7.396 9.788 7.42 9.732L7.456 9.636L7.384 9.384L7.42 9.276C7.428 9.26 7.436 9.236 7.444 9.204C7.452 9.172 7.46 9.132 7.468 9.084L7.564 8.94L7.444 8.856L7.468 8.76V8.748C7.468 8.716 7.452 8.684 7.42 8.652L7.432 8.604C7.448 8.596 7.468 8.588 7.492 8.58C7.516 8.564 7.544 8.544 7.576 8.52L7.6 8.508C7.512 8.436 7.468 8.388 7.468 8.364L7.516 8.28C7.516 8.272 7.492 8.256 7.444 8.232V8.088C7.444 8.072 7.444 8.056 7.444 8.04C7.452 8.024 7.46 8.004 7.468 7.98C7.484 7.956 7.512 7.944 7.552 7.944L7.576 7.92C7.504 7.656 7.468 7.504 7.468 7.464L7.492 7.392L7.516 7.308L7.528 7.128C7.536 7.12 7.544 7.112 7.552 7.104C7.568 7.088 7.588 7.072 7.612 7.056L7.516 6.948C7.508 6.908 7.508 6.872 7.516 6.84C7.492 6.72 7.48 6.632 7.48 6.576C7.48 6.552 7.488 6.532 7.504 6.516C7.512 6.516 7.524 6.524 7.54 6.54C7.548 6.508 7.552 6.48 7.552 6.456C7.56 6.432 7.564 6.416 7.564 6.408C7.556 6.368 7.552 6.344 7.552 6.336C7.552 6.32 7.548 6.32 7.54 6.336L7.588 6.012C7.596 5.996 7.604 5.98 7.612 5.964C7.62 5.948 7.628 5.932 7.636 5.916L7.6 5.82C7.568 5.764 7.552 5.732 7.552 5.724C7.552 5.716 7.572 5.664 7.612 5.568L7.72 5.508C7.696 5.484 7.66 5.472 7.612 5.472C7.612 5.448 7.608 5.424 7.6 5.4C7.6 5.376 7.6 5.352 7.6 5.328C7.6 5.192 7.604 5.096 7.612 5.04C7.62 4.976 7.628 4.956 7.636 4.98L7.612 4.92C7.604 4.904 7.6 4.884 7.6 4.86C7.6 4.78 7.672 4.748 7.816 4.764L7.888 4.788C7.928 4.812 7.952 4.824 7.96 4.824L8.008 4.8C8.024 4.792 8.044 4.788 8.068 4.788C8.092 4.812 8.116 4.832 8.14 4.848C8.236 4.888 8.3 4.908 8.332 4.908C8.348 4.908 8.364 4.888 8.38 4.848C8.412 4.84 8.44 4.836 8.464 4.836C8.488 4.828 8.516 4.828 8.548 4.836C8.564 4.836 8.6 4.872 8.656 4.944C8.704 5.024 8.732 5.064 8.74 5.064C8.74 5.064 8.784 5.032 8.872 4.968C8.944 4.904 8.984 4.876 8.992 4.884L9.076 4.896C9.084 4.896 9.1 4.884 9.124 4.86C9.156 4.844 9.176 4.836 9.184 4.836C9.216 4.836 9.236 4.86 9.244 4.908C9.252 4.956 9.292 4.984 9.364 4.992H9.4C9.416 4.96 9.424 4.936 9.424 4.92H9.472L9.82 4.992C9.86 4.992 9.884 5.008 9.892 5.04L9.928 5.124C10.04 5.06 10.088 5.028 10.072 5.028C10.096 5.044 10.136 5.072 10.192 5.112L10.336 5.172C10.368 5.196 10.384 5.224 10.384 5.256C10.384 5.28 10.38 5.304 10.372 5.328L10.348 5.388C10.348 5.436 10.412 5.456 10.54 5.448H10.696C10.696 5.456 10.696 5.472 10.696 5.496C10.704 5.512 10.712 5.532 10.72 5.556C10.736 5.564 10.748 5.576 10.756 5.592C10.772 5.608 10.788 5.624 10.804 5.64C10.876 5.736 10.912 5.796 10.912 5.82C10.912 5.844 10.904 5.864 10.888 5.88L10.9 5.904C10.908 5.92 10.912 5.936 10.912 5.952L10.828 6.072C10.828 6.136 10.892 6.184 11.02 6.216L11.008 6.24C11.024 6.288 11.032 6.34 11.032 6.396L11.068 6.444V6.528L11.092 6.576L11.08 6.9C11.048 6.932 11.02 6.972 10.996 7.02C10.996 7.028 11.004 7.052 11.02 7.092C11.06 7.148 11.072 7.22 11.056 7.308L10.984 7.536C10.984 7.552 10.984 7.576 10.984 7.608C10.984 7.64 10.98 7.676 10.972 7.716C10.956 7.78 10.928 7.872 10.888 7.992L10.816 8.064C10.832 8.144 10.828 8.196 10.804 8.22C10.78 8.252 10.768 8.272 10.768 8.28C10.76 8.328 10.764 8.376 10.78 8.424L10.648 8.568C10.648 8.584 10.644 8.6 10.636 8.616C10.62 8.616 10.588 8.624 10.54 8.64C10.524 8.656 10.508 8.708 10.492 8.796C10.484 8.828 10.452 8.856 10.396 8.88C10.364 8.888 10.34 8.9 10.324 8.916C10.316 8.924 10.308 8.932 10.3 8.94C10.292 8.956 10.268 9 10.228 9.072C10.22 9.08 10.1 9.132 9.868 9.228L9.712 9.24L9.508 9.3C9.492 9.292 9.46 9.28 9.412 9.264L9.34 9.276C9.316 9.284 9.296 9.288 9.28 9.288L9.124 9.24L8.944 9.204H8.872C8.808 9.204 8.744 9.236 8.68 9.3L8.692 9.552C8.684 9.568 8.66 9.596 8.62 9.636C8.636 9.692 8.644 9.744 8.644 9.792C8.644 9.832 8.644 9.868 8.644 9.9C8.644 9.956 8.64 9.992 8.632 10.008L8.656 10.2C8.624 10.24 8.608 10.268 8.608 10.284L8.644 10.572C8.596 10.604 8.572 10.652 8.572 10.716C8.572 10.78 8.58 10.816 8.596 10.824L8.62 10.836C8.596 11.364 8.56 11.704 8.512 11.856C8.528 11.888 8.548 11.92 8.572 11.952V12.024ZM7.984 5.208C8.008 5.184 8.016 5.168 8.008 5.16L7.936 5.148L7.924 5.184L7.984 5.208ZM7.876 5.316L7.9 5.292C7.9 5.252 7.888 5.204 7.864 5.148C7.832 5.18 7.816 5.212 7.816 5.244L7.828 5.316H7.876ZM8.968 5.28C8.992 5.288 9.016 5.276 9.04 5.244C9.024 5.228 9.004 5.224 8.98 5.232C8.972 5.24 8.968 5.256 8.968 5.28ZM9.892 5.604C9.9 5.588 9.896 5.572 9.88 5.556C9.864 5.54 9.848 5.54 9.832 5.556C9.832 5.588 9.852 5.604 9.892 5.604ZM8.836 5.892L8.848 5.868C8.84 5.844 8.824 5.832 8.8 5.832C8.784 5.864 8.772 5.884 8.764 5.892H8.836ZM8.692 8.124C8.692 8.124 8.716 8.116 8.764 8.1L8.812 8.076C8.828 8.084 8.86 8.088 8.908 8.088L9.028 8.076C9.076 8.076 9.104 8.088 9.112 8.112C9.16 8.096 9.192 8.088 9.208 8.088L9.304 8.112C9.32 8.112 9.344 8.1 9.376 8.076C9.4 8.052 9.416 8.04 9.424 8.04C9.424 8.04 9.436 8.048 9.46 8.064C9.476 8.064 9.508 8.04 9.556 7.992C9.604 7.928 9.64 7.892 9.664 7.884C9.696 7.716 9.708 7.628 9.7 7.62L9.724 7.416C9.748 7.368 9.772 7.308 9.796 7.236L9.784 7.08C9.776 7.024 9.768 6.98 9.76 6.948C9.76 6.908 9.76 6.876 9.76 6.852C9.8 6.828 9.836 6.792 9.868 6.744C9.868 6.712 9.844 6.68 9.796 6.648L9.7 6.576C9.708 6.552 9.712 6.524 9.712 6.492C9.712 6.412 9.676 6.36 9.604 6.336C9.612 6.336 9.616 6.332 9.616 6.324C9.616 6.3 9.584 6.256 9.52 6.192L9.412 6.072C9.396 6.072 9.384 6.068 9.376 6.06C9.352 6.084 9.34 6.108 9.34 6.132H9.232C9.208 6.124 9.176 6.12 9.136 6.12C8.944 6.12 8.848 6.156 8.848 6.228L8.896 6.324C8.896 6.34 8.868 6.372 8.812 6.42C8.86 6.5 8.884 6.56 8.884 6.6C8.876 6.68 8.832 6.724 8.752 6.732C8.768 6.78 8.788 6.816 8.812 6.84C8.82 6.872 8.824 6.916 8.824 6.972C8.824 7.02 8.824 7.076 8.824 7.14L8.8 7.176V7.296L8.812 7.344C8.82 7.368 8.824 7.396 8.824 7.428C8.824 7.444 8.812 7.448 8.788 7.44C8.828 7.48 8.82 7.52 8.764 7.56L8.8 7.632C8.736 7.68 8.704 7.716 8.704 7.74L8.728 7.788L8.764 7.872C8.692 7.952 8.656 8.012 8.656 8.052L8.644 8.1L8.692 8.124ZM7.684 6.312C7.708 6.312 7.72 6.288 7.72 6.24C7.704 6.24 7.688 6.248 7.672 6.264C7.664 6.272 7.668 6.288 7.684 6.312ZM10.42 6.492C10.428 6.484 10.432 6.472 10.432 6.456C10.432 6.432 10.416 6.42 10.384 6.42C10.376 6.444 10.388 6.468 10.42 6.492ZM8.044 6.672C8.068 6.656 8.08 6.632 8.08 6.6C8.064 6.592 8.048 6.596 8.032 6.612C8.024 6.62 8.028 6.64 8.044 6.672ZM10.696 6.72L10.72 6.708C10.728 6.708 10.736 6.704 10.744 6.696L10.72 6.66C10.712 6.668 10.708 6.676 10.708 6.684C10.708 6.692 10.704 6.704 10.696 6.72ZM10.492 6.972C10.5 6.964 10.52 6.952 10.552 6.936C10.544 6.928 10.524 6.928 10.492 6.936V6.972ZM10.84 7.368L10.864 7.332C10.856 7.324 10.852 7.3 10.852 7.26C10.828 7.212 10.788 7.188 10.732 7.188H10.708C10.676 7.188 10.644 7.204 10.612 7.236V7.26C10.668 7.268 10.744 7.304 10.84 7.368ZM7.78 8.22C7.788 8.204 7.784 8.188 7.768 8.172C7.76 8.156 7.744 8.16 7.72 8.184C7.72 8.208 7.74 8.22 7.78 8.22ZM8.704 8.352C8.728 8.36 8.748 8.356 8.764 8.34C8.772 8.332 8.768 8.312 8.752 8.28C8.736 8.28 8.72 8.304 8.704 8.352ZM10.264 8.352C10.288 8.36 10.312 8.348 10.336 8.316C10.328 8.308 10.316 8.304 10.3 8.304C10.276 8.304 10.264 8.32 10.264 8.352ZM9.184 8.484L9.16 8.448L9.148 8.46L9.16 8.484H9.184ZM9.376 8.652L9.388 8.592L9.364 8.568L9.304 8.556L9.268 8.592C9.276 8.6 9.28 8.612 9.28 8.628L9.376 8.652ZM8.2 9.012C8.216 9.012 8.228 9.008 8.236 9V8.94L8.164 8.904C8.188 8.896 8.188 8.856 8.164 8.784C8.172 8.768 8.176 8.736 8.176 8.688L8.008 8.736V8.796C8 8.812 8.024 8.852 8.08 8.916C8.144 8.98 8.184 9.012 8.2 9.012ZM9.46 9.024L9.496 8.976L9.436 8.964L9.412 9.012C9.42 9.02 9.436 9.024 9.46 9.024ZM9.616 9.012L9.652 8.964H9.568L9.616 9.012ZM8.992 9.096C9.024 9.104 9.048 9.1 9.064 9.084L9.04 9.06C9 9.076 8.984 9.088 8.992 9.096ZM8.152 10.032L8.116 9.996C8.1 9.996 8.088 10 8.08 10.008L8.152 10.032ZM8.152 10.224C8.16 10.208 8.156 10.192 8.14 10.176C8.132 10.168 8.112 10.172 8.08 10.188C8.08 10.212 8.104 10.224 8.152 10.224ZM8.44 10.236C8.448 10.228 8.452 10.208 8.452 10.176H8.404C8.412 10.184 8.424 10.204 8.44 10.236ZM7.66 11.004C7.668 10.996 7.676 10.988 7.684 10.98C7.7 10.972 7.712 10.964 7.72 10.956L7.648 10.92L7.624 10.944C7.64 10.976 7.652 10.996 7.66 11.004ZM7.42 10.992C7.436 11.008 7.452 11.008 7.468 10.992L7.456 10.956C7.448 10.956 7.436 10.968 7.42 10.992ZM8.092 11.688C8.1 11.672 8.096 11.656 8.08 11.64C8.072 11.632 8.052 11.636 8.02 11.652C8.02 11.676 8.044 11.688 8.092 11.688Z" fill="black"/>
</svg>
